<svg width="47" height="47" viewBox="0 0 47 47" fill="none" xmlns="http://www.w3.org/2000/svg">
<path d="M23.6006 0.167084C10.9357 0.167084 0.668488 10.49 0.668488 23.2232C0.668488 35.956 10.9357 46.2801 23.6006 46.2801C36.2656 46.2801 46.5336 35.9564 46.5336 23.2232C46.5332 10.49 36.2656 0.167084 23.6006 0.167084ZM31.4324 14.9155C31.4324 15.1356 31.2551 15.3142 31.0359 15.3142H25.4532V18.3308H31.0355C31.2547 18.3308 31.432 18.5094 31.432 18.7295V24.3414C31.432 24.5619 31.2547 24.7401 31.0355 24.7401H25.8497V37.0555C25.8497 37.276 25.6725 37.4542 25.4532 37.4542H20.1775C19.9582 37.4542 19.7809 37.276 19.7809 37.0555V24.7405H16.1658C15.9465 24.7405 15.7693 24.5623 15.7693 24.3418V18.7299C15.7693 18.5098 15.9465 18.3312 16.1658 18.3312H19.7809V16.0557C19.7809 16.023 19.7849 15.9915 19.792 15.9612C19.7952 12.7197 20.4848 9.01136 25.7669 8.99462C25.7784 8.99382 25.7906 8.99302 25.8025 8.99302H31.0355C31.2547 8.99302 31.432 9.17162 31.432 9.39168V14.9155H31.4324Z" fill="#9D99BE"/>
</svg>
