<svg width="47" height="47" viewBox="0 0 47 47" fill="none" xmlns="http://www.w3.org/2000/svg">
<path d="M32.4188 16.5469C32.2187 16.0287 31.9123 15.5582 31.5193 15.1656C31.1263 14.7731 30.6555 14.4672 30.1371 14.2676C29.4233 14.0033 28.6694 13.8635 27.9083 13.8545C26.6426 13.7969 26.2631 13.7825 23.0568 13.7825C19.8504 13.7825 19.471 13.7969 18.2052 13.8545C17.4433 13.8632 16.6886 14.003 15.974 14.2676C15.4558 14.4677 14.9853 14.7741 14.5927 15.1671C14.2002 15.56 13.8943 16.0309 13.6948 16.5493C13.4304 17.2631 13.2907 18.017 13.2817 18.7781C13.224 20.0438 13.2096 20.4233 13.2096 23.6296C13.2096 26.836 13.224 27.2154 13.2817 28.4812C13.2904 29.2431 13.4301 29.9978 13.6948 30.7124C13.8948 31.2306 14.2012 31.7011 14.5942 32.0936C14.9872 32.4862 15.458 32.7921 15.9764 32.9916C16.6902 33.256 17.4441 33.3957 18.2052 33.4047C19.471 33.4624 19.8504 33.4768 23.0568 33.4768C26.2631 33.4768 26.6426 33.4624 27.9083 33.4047C28.6702 33.396 29.425 33.2563 30.1395 32.9916C30.6577 32.7916 31.1282 32.4852 31.5208 32.0922C31.9133 31.6992 32.2192 31.2284 32.4188 30.71C32.6831 29.9962 32.8229 29.2423 32.8319 28.4812C32.8895 27.2154 32.9039 26.836 32.9039 23.6296C32.9039 20.4233 32.8895 20.0438 32.8319 18.7781C32.8231 18.0162 32.6834 17.2614 32.4188 16.5469ZM23.0568 29.7973C21.8369 29.7973 20.6444 29.4356 19.6302 28.7579C18.6159 28.0802 17.8254 27.1169 17.3586 25.9899C16.8917 24.8629 16.7696 23.6228 17.0076 22.4264C17.2456 21.23 17.833 20.131 18.6955 19.2684C19.5581 18.4059 20.6571 17.8184 21.8535 17.5805C23.0499 17.3425 24.29 17.4646 25.417 17.9314C26.544 18.3983 27.5073 19.1888 28.185 20.2031C28.8627 21.2173 29.2244 22.4098 29.2244 23.6296C29.2244 25.2654 28.5746 26.8342 27.418 27.9908C26.2613 29.1475 24.6925 29.7973 23.0568 29.7973ZM29.467 18.6604C29.182 18.6604 28.9034 18.5759 28.6664 18.4176C28.4294 18.2592 28.2447 18.0342 28.1357 17.7708C28.0266 17.5075 27.9981 17.2178 28.0537 16.9382C28.1093 16.6587 28.2465 16.4019 28.448 16.2004C28.6496 15.9989 28.9063 15.8616 29.1859 15.806C29.4654 15.7504 29.7552 15.7789 30.0185 15.888C30.2818 15.9971 30.5069 16.1818 30.6652 16.4188C30.8236 16.6557 30.9081 16.9344 30.9081 17.2194C30.9081 17.6016 30.7562 17.9681 30.486 18.2383C30.2157 18.5086 29.8492 18.6604 29.467 18.6604Z" fill="#9D99BE"/>
<path d="M23.0568 27.6333C25.268 27.6333 27.0605 25.8408 27.0605 23.6296C27.0605 21.4184 25.268 19.6259 23.0568 19.6259C20.8456 19.6259 19.0531 21.4184 19.0531 23.6296C19.0531 25.8408 20.8456 27.6333 23.0568 27.6333Z" fill="#9D99BE"/>
<path d="M23.0568 0.572876C18.4966 0.572876 14.0388 1.92513 10.2471 4.45864C6.45545 6.99215 3.50021 10.5931 1.7551 14.8062C0.0099901 19.0193 -0.446611 23.6552 0.443039 28.1278C1.33269 32.6004 3.52863 36.7087 6.75318 39.9332C9.97772 43.1578 14.086 45.3537 18.5586 46.2434C23.0312 47.133 27.6671 46.6764 31.8802 44.9313C36.0933 43.1862 39.6943 40.2309 42.2278 36.4393C44.7613 32.6476 46.1135 28.1898 46.1135 23.6296C46.1135 20.6018 45.5171 17.6036 44.3584 14.8062C43.1997 12.0088 41.5014 9.46706 39.3604 7.32604C37.2193 5.18503 34.6776 3.48668 31.8802 2.32797C29.0828 1.16926 26.0846 0.572876 23.0568 0.572876ZM34.9934 28.582C34.9728 29.5778 34.7836 30.5628 34.4338 31.4953C34.1254 32.2929 33.6537 33.0172 33.049 33.6219C32.4444 34.2266 31.72 34.6983 30.9225 35.0067C29.99 35.3565 29.0049 35.5457 28.0092 35.5663C26.7266 35.6239 26.3183 35.6384 23.0568 35.6384C19.7952 35.6384 19.3869 35.6239 18.1044 35.5663C17.1086 35.5457 16.1236 35.3565 15.191 35.0067C14.3935 34.6983 13.6692 34.2266 13.0645 33.6219C12.4598 33.0172 11.9881 32.2929 11.6797 31.4953C11.3299 30.5628 11.1407 29.5778 11.1201 28.582C11.0624 27.2995 11.048 26.8912 11.048 23.6296C11.048 20.3681 11.0624 19.9598 11.1201 18.6772C11.1407 17.6815 11.3299 16.6964 11.6797 15.7639C11.9881 14.9663 12.4598 14.242 13.0645 13.6373C13.6692 13.0327 14.3935 12.561 15.191 12.2526C16.1236 11.9028 17.1086 11.7136 18.1044 11.693C19.3869 11.6353 19.7952 11.6209 23.0568 11.6209C26.3183 11.6209 26.7266 11.6353 28.0092 11.693C29.0049 11.7136 29.99 11.9028 30.9225 12.2526C31.72 12.561 32.4444 13.0327 33.049 13.6373C33.6537 14.242 34.1254 14.9663 34.4338 15.7639C34.7836 16.6964 34.9728 17.6815 34.9934 18.6772C35.0511 19.9598 35.0655 20.3681 35.0655 23.6296C35.0655 26.8912 35.0511 27.2995 34.9934 28.582Z" fill="#9D99BE"/>
</svg>
