<svg width="142" height="47" viewBox="0 0 142 47" fill="none" xmlns="http://www.w3.org/2000/svg">
<g clip-path="url(#clip0_2_10)">
<path d="M0 23.6808C0 22.0515 0.298249 20.5161 0.894745 19.0748C1.52264 17.6335 2.35459 16.3958 3.39061 15.3618C4.45802 14.2965 5.69811 13.4661 7.11087 12.8708C8.55499 12.2441 10.109 11.9308 11.773 11.9308C13.6566 11.9308 15.4304 12.3695 17.0943 13.2468C18.7583 14.0928 20.1239 15.2208 21.1913 16.6308V7.70078H23.5459V23.6808C23.5459 25.3415 23.232 26.8925 22.6041 28.3338C22.0076 29.7438 21.1756 30.9815 20.1082 32.0468C19.0722 33.0808 17.8321 33.9111 16.388 34.5378C14.9438 35.1331 13.4055 35.4308 11.773 35.4308C10.109 35.4308 8.55499 35.1331 7.11087 34.5378C5.69811 33.9111 4.45802 33.0808 3.39061 32.0468C2.35459 30.9815 1.52264 29.7438 0.894745 28.3338C0.298249 26.8925 0 25.3415 0 23.6808ZM2.35459 23.6808C2.35459 24.9655 2.60575 26.1875 3.10806 27.3468C3.61037 28.4748 4.28536 29.4618 5.13301 30.3078C5.98066 31.1538 6.96959 31.8275 8.0998 32.3288C9.26137 32.8301 10.4858 33.0808 11.773 33.0808C13.0602 33.0808 14.2688 32.8301 15.399 32.3288C16.5606 31.8275 17.5653 31.1538 18.4129 30.3078C19.2606 29.4618 19.9356 28.4748 20.4379 27.3468C20.9401 26.1875 21.1913 24.9655 21.1913 23.6808C21.1913 22.3961 20.9401 21.1898 20.4379 20.0618C19.9356 18.9025 19.2606 17.8998 18.4129 17.0538C17.5653 16.2078 16.5606 15.5341 15.399 15.0328C14.2688 14.5315 13.0602 14.2808 11.773 14.2808C10.4858 14.2808 9.26137 14.5315 8.0998 15.0328C6.96959 15.5341 5.98066 16.2078 5.13301 17.0538C4.28536 17.8998 3.61037 18.9025 3.10806 20.0618C2.60575 21.1898 2.35459 22.3961 2.35459 23.6808ZM38.1242 33.0808C40.1334 33.0808 41.9072 32.5481 43.4456 31.4828C44.9839 30.4175 46.1141 28.9918 46.8362 27.2058H49.4262C49.018 28.3965 48.4373 29.4931 47.6838 30.4958C46.9617 31.4985 46.0983 32.3601 45.0938 33.0808C44.1205 33.8015 43.0374 34.3811 41.8444 34.8198C40.6514 35.2271 39.4113 35.4308 38.1242 35.4308C36.4602 35.4308 34.9062 35.1331 33.4621 34.5378C32.0493 33.9111 30.8092 33.0808 29.7418 32.0468C28.7058 30.9815 27.8738 29.7438 27.246 28.3338C26.6494 26.8925 26.3512 25.3415 26.3512 23.6808C26.3512 22.0515 26.6494 20.5161 27.246 19.0748C27.8738 17.6335 28.7058 16.3958 29.7418 15.3618C30.8092 14.2965 32.0493 13.4661 33.4621 12.8708C34.9062 12.2441 36.4602 11.9308 38.1242 11.9308C39.7567 11.9308 41.295 12.2441 42.7392 12.8708C44.1833 13.4661 45.4234 14.2965 46.4594 15.3618C47.5268 16.3958 48.3588 17.6335 48.9553 19.0748C49.5831 20.5161 49.8971 22.0515 49.8971 23.6808V24.8558H45.6589H28.7058C28.8942 26.0465 29.2552 27.1431 29.7889 28.1458C30.354 29.1485 31.0604 30.0101 31.9081 30.7308C32.7557 31.4515 33.6975 32.0311 34.7336 32.4698C35.801 32.8771 36.9312 33.0808 38.1242 33.0808ZM38.1242 14.2808C36.9312 14.2808 35.801 14.5001 34.7336 14.9388C33.6975 15.3461 32.7557 15.9101 31.9081 16.6308C31.0604 17.3515 30.354 18.2288 29.7889 19.2628C29.2552 20.2655 28.8942 21.3465 28.7058 22.5058H47.5425C47.3542 21.3465 46.9774 20.2655 46.4123 19.2628C45.8786 18.2288 45.1879 17.3515 44.3403 16.6308C43.4926 15.9101 42.5351 15.3461 41.4677 14.9388C40.4002 14.5001 39.2858 14.2808 38.1242 14.2808ZM64.4753 11.9308C66.0764 11.9308 67.5834 12.2441 68.9961 12.8708C70.4089 13.4975 71.649 14.3591 72.7163 15.4558C73.8154 16.5211 74.6782 17.7588 75.3064 19.1688C75.9345 20.5788 76.2482 22.0828 76.2482 23.6808V35.4308H73.8936V23.6808C73.8936 22.3961 73.6422 21.1898 73.1401 20.0618C72.6381 18.9025 71.9629 17.8998 71.1153 17.0538C70.2676 16.2078 69.263 15.5341 68.1014 15.0328C66.9712 14.5315 65.7625 14.2808 64.4753 14.2808C63.1882 14.2808 61.9638 14.5315 60.8022 15.0328C59.672 15.5341 58.683 16.2078 57.8354 17.0538C56.9877 17.8998 56.3128 18.9025 55.8104 20.0618C55.3081 21.1898 55.057 22.3961 55.057 23.6808V35.4308H52.7024V23.6808C52.7024 22.0828 53.0006 20.5788 53.5971 19.1688C54.225 17.7588 55.057 16.5211 56.093 15.4558C57.1604 14.3591 58.4005 13.4975 59.8132 12.8708C61.2574 12.2441 62.8115 11.9308 64.4753 11.9308Z" fill="#8B8D99"/>
<path d="M0.894746 19.0748L0.695389 18.9883L0.693861 18.992L0.894746 19.0748ZM3.39061 15.3618L3.5443 15.5151L3.39061 15.3618ZM7.11087 12.8708L7.19542 13.0706L7.19753 13.0697L7.11087 12.8708ZM17.0943 13.2468L16.9928 13.4386L16.9957 13.4401L17.0943 13.2468ZM21.1913 16.6308L21.0179 16.7615L21.4087 17.2777V16.6308H21.1913ZM21.1913 7.70078V7.48386H20.974V7.70078H21.1913ZM23.5459 7.70078H23.7633V7.48386H23.5459V7.70078ZM22.6041 28.3338L22.4048 28.2473L22.4038 28.2494L22.6041 28.3338ZM20.1082 32.0468L19.9545 31.8934L20.1082 32.0468ZM16.388 34.5378L16.4709 34.7383L16.4746 34.7367L16.388 34.5378ZM7.11087 34.5378L7.02257 34.736L7.02789 34.7383L7.11087 34.5378ZM3.39061 32.0468L3.23458 32.1979L3.23924 32.2025L3.39061 32.0468ZM0.894746 28.3338L0.69379 28.4166L0.696132 28.4218L0.894746 28.3338ZM3.10806 27.3468L2.90856 27.4329L2.90945 27.4348L3.10806 27.3468ZM5.13301 30.3078L5.2867 30.1544L5.13301 30.3078ZM8.0998 32.3288L8.01155 32.527L8.01351 32.5279L8.0998 32.3288ZM15.399 32.3288L15.3127 32.1296L15.3108 32.1306L15.399 32.3288ZM18.4129 30.3078L18.5666 30.4611L18.4129 30.3078ZM20.4379 27.3468L20.6365 27.4348L20.6374 27.4329L20.4379 27.3468ZM20.4379 20.0618L20.2383 20.1479L20.2393 20.1498L20.4379 20.0618ZM18.4129 17.0538L18.5666 16.9004L18.4129 17.0538ZM15.399 15.0328L15.3108 15.231L15.3127 15.2319L15.399 15.0328ZM8.0998 15.0328L8.01351 14.8336L8.01155 14.8346L8.0998 15.0328ZM5.13301 17.0538L4.97932 16.9004L5.13301 17.0538ZM3.10806 20.0618L3.30669 20.1498L3.30756 20.1479L3.10806 20.0618ZM0.217348 23.6808C0.217348 22.0786 0.510488 20.5715 1.09563 19.1576L0.693861 18.992C0.08601 20.4607 -0.217346 22.0244 -0.217346 23.6808H0.217348ZM1.09407 19.1613C1.7119 17.743 2.52896 16.5285 3.5443 15.5151L3.23693 15.2084C2.18022 16.263 1.33337 17.5239 0.695423 18.9883L1.09407 19.1613ZM3.5443 15.5151C4.59156 14.4699 5.80807 13.6552 7.19541 13.0706L7.02633 12.6709C5.58816 13.277 4.32449 14.1229 3.23693 15.2084L3.5443 15.5151ZM7.19753 13.0697C8.61281 12.4556 10.1371 12.1477 11.773 12.1477V11.7139C10.0809 11.7139 8.49725 12.0327 7.0242 12.6719L7.19753 13.0697ZM11.773 12.1477C13.6213 12.1477 15.3602 12.5778 16.9928 13.4386L17.1958 13.0549C15.5006 12.1612 13.692 11.7139 11.773 11.7139V12.1477ZM16.9957 13.4401C18.6319 14.272 19.9714 15.3792 21.0179 16.7615L21.3648 16.5C20.2764 15.0624 18.8846 13.9136 17.193 13.0535L16.9957 13.4401ZM21.4087 16.6308V7.70078H20.974V16.6308H21.4087ZM21.1913 7.9177H23.5459V7.48386H21.1913V7.9177ZM23.3286 7.70078V23.6808H23.7633V7.70078H23.3286ZM23.3286 23.6808C23.3286 25.3134 23.0201 26.8348 22.4048 28.2473L22.8034 28.4203C23.4438 26.9501 23.7633 25.3695 23.7633 23.6808H23.3286ZM22.4038 28.2494C21.8181 29.634 21.0018 30.8481 19.9545 31.8934L20.2619 32.2001C21.3495 31.1147 22.1971 29.8535 22.8043 28.4182L22.4038 28.2494ZM19.9545 31.8934C18.9392 32.9067 17.7223 33.7222 16.3013 34.3389L16.4746 34.7367C17.9419 34.1 19.2052 33.2548 20.2619 32.2001L19.9545 31.8934ZM16.305 34.3373C14.8883 34.9213 13.3783 35.2139 11.773 35.2139V35.6477C13.4326 35.6477 14.9993 35.3449 16.4709 34.7383L16.305 34.3373ZM11.773 35.2139C10.1356 35.2139 8.60998 34.9211 7.19384 34.3373L7.02789 34.7383C8.5 35.3452 10.0824 35.6477 11.773 35.6477V35.2139ZM7.19914 34.3396C5.80884 33.7229 4.59032 32.9067 3.54199 31.8911L3.23924 32.2025C4.32573 33.2549 5.58739 34.0994 7.0226 34.736L7.19914 34.3396ZM3.54657 31.8957C2.52907 30.8494 1.71127 29.6333 1.09336 28.2457L0.696132 28.4218C1.334 29.8543 2.18011 31.1135 3.23465 32.1978L3.54657 31.8957ZM1.09563 28.251C0.510695 26.8376 0.217348 25.3149 0.217348 23.6808H-0.217346C-0.217346 25.368 0.0858028 26.9473 0.693861 28.4166L1.09563 28.251ZM2.13725 23.6808C2.13725 24.9945 2.39427 26.2459 2.90857 27.4329L3.30756 27.2607C2.81722 26.129 2.57194 24.9363 2.57194 23.6808H2.13725ZM2.90945 27.4348C3.42224 28.5864 4.1122 29.5958 4.97932 30.4611L5.2867 30.1544C4.45851 29.3278 3.79851 28.3631 3.30667 27.2587L2.90945 27.4348ZM4.97932 30.4611C5.84644 31.3266 6.85773 32.0152 8.01155 32.527L8.18804 32.1306C7.08145 31.6397 6.11489 30.981 5.2867 30.1544L4.97932 30.4611ZM8.01351 32.5279C9.20283 33.0412 10.4566 33.2977 11.773 33.2977V32.8639C10.515 32.8639 9.31998 32.619 8.18608 32.1296L8.01351 32.5279ZM11.773 33.2977C13.0893 33.2977 14.3282 33.0412 15.4873 32.527L15.3108 32.1306C14.2095 32.619 13.031 32.8639 11.773 32.8639V33.2977ZM15.4853 32.5279C16.6707 32.0163 17.6985 31.3276 18.5666 30.4611L18.2592 30.1544C17.432 30.9799 16.4506 31.6386 15.3127 32.1296L15.4853 32.5279ZM18.5666 30.4611C19.4337 29.5958 20.1236 28.5864 20.6364 27.4348L20.2393 27.2587C19.7474 28.3631 19.0874 29.3278 18.2592 30.1544L18.5666 30.4611ZM20.6374 27.4329C21.1516 26.2459 21.4087 24.9945 21.4087 23.6808H20.974C20.974 24.9363 20.7287 26.129 20.2383 27.2607L20.6374 27.4329ZM21.4087 23.6808C21.4087 22.367 21.1516 21.1306 20.6364 19.9737L20.2393 20.1498C20.7287 21.249 20.974 22.4252 20.974 23.6808H21.4087ZM20.6374 19.9757C20.1248 18.7926 19.4347 17.7668 18.5666 16.9004L18.2592 17.2071C19.0864 18.0328 19.7463 19.0122 20.2383 20.1479L20.6374 19.9757ZM18.5666 16.9004C17.6985 16.034 16.6707 15.3452 15.4853 14.8336L15.3127 15.2319C16.4506 15.723 17.432 16.3816 18.2592 17.2071L18.5666 16.9004ZM15.4873 14.8346C14.3282 14.3204 13.0893 14.0639 11.773 14.0639V14.4977C13.031 14.4977 14.2095 14.7425 15.3108 15.231L15.4873 14.8346ZM11.773 14.0639C10.4566 14.0639 9.20283 14.3204 8.01351 14.8336L8.18608 15.2319C9.31998 14.7425 10.515 14.4977 11.773 14.4977V14.0639ZM8.01155 14.8346C6.85773 15.3464 5.84644 16.035 4.97932 16.9004L5.2867 17.2071C6.11489 16.3806 7.08145 15.7219 8.18804 15.231L8.01155 14.8346ZM4.97932 16.9004C4.11122 17.7668 3.42115 18.7926 2.90857 19.9757L3.30756 20.1479C3.7996 19.0122 4.4595 18.0328 5.2867 17.2071L4.97932 16.9004ZM2.90945 19.9737C2.39428 21.1306 2.13725 22.367 2.13725 23.6808H2.57194C2.57194 22.4252 2.81722 21.249 3.30667 20.1498L2.90945 19.9737ZM43.4455 31.4828L43.3216 31.3045L43.4455 31.4828ZM46.8362 27.2058V26.9889H46.6895L46.6346 27.1246L46.8362 27.2058ZM49.4262 27.2058L49.6318 27.276L49.7303 26.9889H49.4262V27.2058ZM47.6838 30.4958L47.5099 30.3656L47.5073 30.3692L47.6838 30.4958ZM45.0938 33.0808L44.9669 32.9046L44.9642 32.9066L45.0938 33.0808ZM41.8444 34.8198L41.9148 35.0251L41.9196 35.0233L41.8444 34.8198ZM33.4621 34.5378L33.3738 34.736L33.3791 34.7383L33.4621 34.5378ZM29.7418 32.0468L29.5858 32.1979L29.5904 32.2025L29.7418 32.0468ZM27.246 28.3338L27.045 28.4166L27.0473 28.4218L27.246 28.3338ZM27.246 19.0748L27.0466 18.9883L27.0451 18.992L27.246 19.0748ZM29.7418 15.3618L29.8955 15.5151L29.7418 15.3618ZM33.4621 12.8708L33.5466 13.0706L33.5487 13.0697L33.4621 12.8708ZM42.7392 12.8708L42.6524 13.0698L42.6561 13.0713L42.7392 12.8708ZM46.4594 15.3618L46.3034 15.5129L46.308 15.5175L46.4594 15.3618ZM48.9553 19.0748L48.7543 19.1576L48.756 19.1613L48.9553 19.0748ZM49.8971 24.8558V25.0727H50.1145V24.8558H49.8971ZM28.7058 24.8558V24.6389H28.4514L28.4911 24.8896L28.7058 24.8558ZM29.7889 28.1458L29.5969 28.2476L29.5995 28.2521L29.7889 28.1458ZM31.908 30.7308L31.7671 30.8959L31.908 30.7308ZM34.7336 32.4698L34.6486 32.6696L34.6559 32.6724L34.7336 32.4698ZM34.7336 14.9388L34.8132 15.1407L34.8163 15.1394L34.7336 14.9388ZM31.908 16.6308L32.049 16.7959L31.908 16.6308ZM29.7889 19.2628L29.5981 19.1589L29.5969 19.161L29.7889 19.2628ZM28.7058 22.5058L28.4912 22.4711L28.4504 22.7227H28.7058V22.5058ZM47.5425 22.5058V22.7227H47.7979L47.7571 22.4711L47.5425 22.5058ZM46.4123 19.2628L46.219 19.3622L46.2229 19.3691L46.4123 19.2628ZM44.3403 16.6308L44.4812 16.4656L44.3403 16.6308ZM41.4677 14.9388L41.3849 15.1394L41.39 15.1414L41.4677 14.9388ZM38.1242 33.2977C40.1743 33.2977 41.992 32.7534 43.5694 31.661L43.3216 31.3045C41.8224 32.3428 40.0925 32.8639 38.1242 32.8639V33.2977ZM43.5694 31.661C45.1437 30.5708 46.3003 29.1109 47.0377 27.287L46.6346 27.1246C45.9279 28.8727 44.824 30.2641 43.3216 31.3045L43.5694 31.661ZM46.8362 27.4227H49.4262V26.9889H46.8362V27.4227ZM49.2205 27.1356C48.8197 28.3048 48.2496 29.3812 47.5099 30.3656L47.8577 30.6259C48.6249 29.605 49.2163 28.4881 49.6318 27.276L49.2205 27.1356ZM47.5073 30.3692C46.799 31.3528 45.9524 32.1977 44.9669 32.9046L45.2206 33.2569C46.2443 32.5226 47.1244 31.6442 47.8603 30.6224L47.5073 30.3692ZM44.9642 32.9066C44.0084 33.6143 42.9438 34.1843 41.7693 34.6162L41.9196 35.0233C43.131 34.5778 44.2326 33.9885 45.2232 33.255L44.9642 32.9066ZM41.7741 34.6146C40.6042 35.014 39.3879 35.2139 38.1242 35.2139V35.6477C39.4348 35.6477 40.6986 35.4402 41.9148 35.025L41.7741 34.6146ZM38.1242 35.2139C36.4868 35.2139 34.9612 34.9211 33.545 34.3373L33.3791 34.7383C34.8512 35.3452 36.4336 35.6477 38.1242 35.6477V35.2139ZM33.5503 34.3396C32.16 33.7229 30.9415 32.9067 29.8932 31.8911L29.5904 32.2025C30.6769 33.2549 31.9386 34.0994 33.3738 34.736L33.5503 34.3396ZM29.8977 31.8957C28.8803 30.8494 28.0625 29.6333 27.4445 28.2457L27.0473 28.4218C27.6852 29.8543 28.5313 31.1135 29.5858 32.1978L29.8977 31.8957ZM27.4468 28.251C26.8619 26.8376 26.5686 25.3149 26.5686 23.6808H26.1339C26.1339 25.368 26.437 26.9473 27.0451 28.4166L27.4468 28.251ZM26.5686 23.6808C26.5686 22.0786 26.8617 20.5715 27.4468 19.1576L27.0451 18.992C26.4372 20.4607 26.1339 22.0244 26.1339 23.6808H26.5686ZM27.4453 19.1613C28.0631 17.743 28.8802 16.5285 29.8955 15.5151L29.5881 15.2084C28.5314 16.263 27.6846 17.5239 27.0466 18.9883L27.4453 19.1613ZM29.8955 15.5151C30.9427 14.4699 32.1592 13.6552 33.5466 13.0706L33.3775 12.6709C31.9393 13.277 30.6757 14.1229 29.5881 15.2084L29.8955 15.5151ZM33.5487 13.0697C34.964 12.4556 36.4883 12.1477 38.1242 12.1477V11.7139C36.4321 11.7139 34.8484 12.0327 33.3754 12.6719L33.5487 13.0697ZM38.1242 12.1477C39.728 12.1477 41.2367 12.4554 42.6525 13.0697L42.8258 12.6719C41.3533 12.0329 39.7854 11.7139 38.1242 11.7139V12.1477ZM42.6561 13.0713C44.0743 13.6559 45.2892 14.4699 46.3034 15.5128L46.6153 15.2107C45.5577 14.123 44.2923 13.2764 42.8221 12.6703L42.6561 13.0713ZM46.308 15.5175C47.3531 16.5298 48.1686 17.7422 48.7544 19.1576L49.1562 18.992C48.5489 17.5246 47.7006 16.2618 46.6108 15.2061L46.308 15.5175ZM48.756 19.1613C49.3715 20.5743 49.6798 22.0801 49.6798 23.6808H50.1145C50.1145 22.0228 49.7948 20.4579 49.1546 18.9883L48.756 19.1613ZM49.6798 23.6808V24.8558H50.1145V23.6808H49.6798ZM49.8971 24.6389H45.6589V25.0727H49.8971V24.6389ZM45.6589 24.6389H28.7058V25.0727H45.6589V24.6389ZM28.4911 24.8896C28.683 26.1026 29.0512 27.2223 29.5969 28.2475L29.9808 28.044C29.4591 27.0638 29.1053 25.9904 28.9205 24.8219L28.4911 24.8896ZM29.5995 28.2521C30.1767 29.2763 30.8993 30.1581 31.7671 30.8959L32.049 30.5656C31.2215 29.8621 30.5313 29.0206 29.9783 28.0394L29.5995 28.2521ZM31.7671 30.8959C32.6317 31.631 33.5925 32.2223 34.6487 32.6695L34.8184 32.2701C33.8025 31.8399 32.8796 31.2719 32.049 30.5656L31.7671 30.8959ZM34.6559 32.6724C35.7492 33.0896 36.9058 33.2977 38.1242 33.2977V32.8639C36.9565 32.8639 35.8527 32.6646 34.8112 32.2672L34.6559 32.6724ZM38.1242 14.0639C36.9038 14.0639 35.7453 14.2884 34.6508 14.7382L34.8163 15.1394C35.8566 14.7119 36.9586 14.4977 38.1242 14.4977V14.0639ZM34.6539 14.737C33.5955 15.153 32.633 15.7295 31.7671 16.4656L32.049 16.7959C32.8784 16.0908 33.7995 15.5391 34.8132 15.1406L34.6539 14.737ZM31.7671 16.4656C30.898 17.2045 30.1751 18.103 29.5981 19.1589L29.9797 19.3667C30.5328 18.3545 31.2228 17.4984 32.049 16.7959L31.7671 16.4656ZM29.5969 19.161C29.0517 20.1854 28.6833 21.2891 28.4912 22.4711L28.9203 22.5405C29.105 21.4038 29.4587 20.3455 29.9808 19.3645L29.5969 19.161ZM28.7058 22.7227H47.5425V22.2889H28.7058V22.7227ZM47.7571 22.4711C47.5647 21.2871 47.1796 20.1818 46.6017 19.1564L46.2229 19.3691C46.7752 20.3491 47.1436 21.4058 47.3279 22.5405L47.7571 22.4711ZM46.6056 19.1634C46.0594 18.1055 45.3514 17.2055 44.4812 16.4656L44.1993 16.7959C45.0244 17.4974 45.6978 18.3521 46.2191 19.3621L46.6056 19.1634ZM44.4812 16.4656C43.6143 15.7286 42.6352 15.1521 41.5453 14.7362L41.39 15.1414C42.435 15.5402 43.371 16.0917 44.1993 16.7959L44.4812 16.4656ZM41.5504 14.7382C40.4566 14.2887 39.3139 14.0639 38.1242 14.0639V14.4977C39.2576 14.4977 40.3439 14.7116 41.3849 15.1394L41.5504 14.7382ZM68.9961 12.8708L69.0844 12.6726L68.9961 12.8708ZM72.7163 15.4558L72.5605 15.607L72.5649 15.6114L72.7163 15.4558ZM75.3064 19.1688L75.5049 19.0807L75.3064 19.1688ZM76.2482 35.4308V35.6477H76.4655V35.4308H76.2482ZM73.8936 35.4308H73.6763V35.6477H73.8936V35.4308ZM73.1401 20.0618L72.9409 20.1479L72.9416 20.1498L73.1401 20.0618ZM71.1153 17.0538L71.269 16.9004L71.1153 17.0538ZM68.1014 15.0328L68.0131 15.231L68.0152 15.2319L68.1014 15.0328ZM60.8022 15.0328L60.7159 14.8336L60.7139 14.8346L60.8022 15.0328ZM57.8354 17.0538L57.6817 16.9004L57.8354 17.0538ZM55.8104 20.0618L56.0091 20.1498L56.0099 20.1479L55.8104 20.0618ZM55.057 35.4308V35.6477H55.2743V35.4308H55.057ZM52.7024 35.4308H52.485V35.6477H52.7024V35.4308ZM53.5971 19.1688L53.3984 19.0806L53.3969 19.0844L53.5971 19.1688ZM56.093 15.4558L55.9371 15.3047L55.9371 15.3047L56.093 15.4558ZM59.8132 12.8708L59.7266 12.6719L59.725 12.6726L59.8132 12.8708ZM64.4753 12.1477C66.0472 12.1477 67.5239 12.4551 68.9079 13.069L69.0844 12.6726C67.6429 12.0331 66.1058 11.7139 64.4753 11.7139V12.1477ZM68.9079 13.069C70.2955 13.6845 71.5126 14.5303 72.5605 15.6069L72.8721 15.3047C71.7854 14.1879 70.5223 13.3103 69.0844 12.6726L68.9079 13.069ZM72.5649 15.6114C73.6437 16.6572 74.4913 17.8719 75.1079 19.2568L75.5049 19.0807C74.8659 17.6456 73.9871 16.385 72.8677 15.3002L72.5649 15.6114ZM75.1079 19.2568C75.7229 20.6381 76.0309 22.112 76.0309 23.6808H76.4655C76.4655 22.0536 76.1461 20.5194 75.5049 19.0807L75.1079 19.2568ZM76.0309 23.6808V35.4308H76.4655V23.6808H76.0309ZM76.2482 35.2139H73.8936V35.6477H76.2482V35.2139ZM74.111 35.4308V23.6808H73.6763V35.4308H74.111ZM74.111 23.6808C74.111 22.367 73.8538 21.1306 73.3386 19.9737L72.9416 20.1498C73.4314 21.249 73.6763 22.4252 73.6763 23.6808H74.111ZM73.3394 19.9757C72.8272 18.7926 72.1371 17.7668 71.269 16.9004L70.9616 17.2071C71.7888 18.0328 72.4487 19.0122 72.9409 20.1479L73.3394 19.9757ZM71.269 16.9004C70.4008 16.034 69.373 15.3452 68.1877 14.8336L68.0152 15.2319C69.153 15.723 70.1344 16.3816 70.9616 17.2071L71.269 16.9004ZM68.1897 14.8346C67.0306 14.3204 65.7916 14.0639 64.4753 14.0639V14.4977C65.7334 14.4977 66.9118 14.7425 68.0131 15.231L68.1897 14.8346ZM64.4753 14.0639C63.159 14.0639 61.9052 14.3204 60.7159 14.8336L60.8884 15.2319C62.0223 14.7425 63.2173 14.4977 64.4753 14.4977V14.0639ZM60.7139 14.8346C59.5601 15.3464 58.5488 16.035 57.6817 16.9004L57.9891 17.2071C58.8173 16.3806 59.7838 15.7219 60.8905 15.231L60.7139 14.8346ZM57.6817 16.9004C56.8136 17.7668 56.1235 18.7926 55.611 19.9757L56.0099 20.1479C56.502 19.0122 57.1619 18.0328 57.9891 17.2071L57.6817 16.9004ZM55.6118 19.9737C55.0967 21.1306 54.8396 22.367 54.8396 23.6808H55.2743C55.2743 22.4252 55.5196 21.249 56.0091 20.1498L55.6118 19.9737ZM54.8396 23.6808V35.4308H55.2743V23.6808H54.8396ZM55.057 35.2139H52.7024V35.6477H55.057V35.2139ZM52.9197 35.4308V23.6808H52.485V35.4308H52.9197ZM52.9197 23.6808C52.9197 22.1105 53.2127 20.6353 53.7974 19.2532L53.3969 19.0844C52.7886 20.5223 52.485 22.0551 52.485 23.6808H52.9197ZM53.7958 19.2568C54.4137 17.8693 55.2315 16.6531 56.2489 15.6068L55.9371 15.3047C54.8825 16.3891 54.0364 17.6483 53.3985 19.0807L53.7958 19.2568ZM56.2489 15.6069C57.2968 14.5303 58.5139 13.6845 59.9015 13.069L59.725 12.6726C58.2871 13.3103 57.024 14.1879 55.9371 15.3047L56.2489 15.6069ZM59.8999 13.0697C61.3152 12.4556 62.8396 12.1477 64.4753 12.1477V11.7139C62.7833 11.7139 61.1996 12.0327 59.7266 12.6719L59.8999 13.0697Z" fill="#8B8D99"/>
<path d="M85.8521 10.0508H83.4975V7.70078H85.8521V10.0508ZM83.4975 11.9308V35.4308C83.4975 36.7781 83.2461 38.0158 82.744 39.1438C82.2419 40.3031 81.5667 41.3058 80.7191 42.1518C79.8714 42.9978 78.8665 43.6558 77.7052 44.1258C76.575 44.5958 75.3665 44.8308 74.0791 44.8308C72.7917 44.8308 71.5675 44.5958 70.4059 44.1258C69.2757 43.6558 68.2868 42.9978 67.4392 42.1518C66.5915 41.3058 65.9165 40.3031 65.4142 39.1438C64.9119 38.0158 64.6607 36.7781 64.6607 35.4308H62.3062C62.3062 37.0915 62.6044 38.6268 63.2009 40.0368C63.8288 41.4781 64.6607 42.7158 65.6968 43.7498C66.7642 44.8151 68.0043 45.6455 69.417 46.2408C70.8611 46.8675 72.4152 47.1808 74.0791 47.1808C75.6802 47.1808 77.1872 46.8675 78.5999 46.2408C80.0127 45.6455 81.253 44.8151 82.3202 43.7498C83.4192 42.7158 84.2821 41.4781 84.9102 40.0368C85.5384 38.6268 85.8521 37.0915 85.8521 35.4308V11.9308H83.4975ZM100.43 11.9308C102.063 11.9308 103.601 12.2441 105.045 12.8708C106.489 13.4661 107.729 14.2965 108.766 15.3618C109.833 16.3958 110.665 17.6335 111.261 19.0748C111.89 20.5161 112.203 22.0515 112.203 23.6808V35.4308H109.849V30.7308C108.781 32.1408 107.416 33.2845 105.752 34.1618C104.087 35.0078 102.314 35.4308 100.43 35.4308C98.7661 35.4308 97.2121 35.1331 95.7682 34.5378C94.3554 33.9111 93.1151 33.0808 92.0479 32.0468C91.0119 30.9815 90.1802 29.7438 89.552 28.3338C88.9558 26.8925 88.6573 25.3415 88.6573 23.6808C88.6573 22.0515 88.9558 20.5161 89.552 19.0748C90.1802 17.6335 91.0119 16.3958 92.0479 15.3618C93.1151 14.2965 94.3554 13.4661 95.7682 12.8708C97.2121 12.2441 98.7661 11.9308 100.43 11.9308ZM100.43 33.0808C101.718 33.0808 102.926 32.8301 104.056 32.3288C105.218 31.8275 106.223 31.1538 107.07 30.3078C107.918 29.4618 108.593 28.4748 109.095 27.3468C109.597 26.1875 109.849 24.9655 109.849 23.6808C109.849 22.3961 109.597 21.1898 109.095 20.0618C108.593 18.9025 107.918 17.8998 107.07 17.0538C106.223 16.2078 105.218 15.5341 104.056 15.0328C102.926 14.5315 101.718 14.2808 100.43 14.2808C99.1428 14.2808 97.9184 14.5315 96.7571 15.0328C95.6269 15.5341 94.638 16.2078 93.7903 17.0538C92.9427 17.8998 92.2674 18.9025 91.7654 20.0618C91.2633 21.1898 91.0119 22.3961 91.0119 23.6808C91.0119 24.9655 91.2633 26.1875 91.7654 27.3468C92.2674 28.4748 92.9427 29.4618 93.7903 30.3078C94.638 31.1538 95.6269 31.8275 96.7571 32.3288C97.9184 32.8301 99.1428 33.0808 100.43 33.0808ZM138.554 11.9308V23.4458V23.6808V35.4308C138.554 37.0915 138.241 38.6268 137.613 40.0368C137.016 41.4781 136.184 42.7158 135.117 43.7498C134.081 44.8151 132.84 45.6455 131.396 46.2408C129.952 46.8675 128.414 47.1808 126.781 47.1808C125.117 47.1808 123.563 46.8675 122.119 46.2408C120.707 45.6455 119.466 44.8151 118.399 43.7498C117.363 42.7158 116.531 41.4781 115.903 40.0368C115.307 38.6268 115.008 37.0915 115.008 35.4308H117.363C117.363 36.7155 117.614 37.9218 118.116 39.0498C118.619 40.2091 119.294 41.2118 120.141 42.0578C120.989 42.9038 121.978 43.5775 123.108 44.0788C124.27 44.5801 125.494 44.8308 126.781 44.8308C128.069 44.8308 129.277 44.5801 130.407 44.0788C131.569 43.5775 132.574 42.9038 133.421 42.0578C134.269 41.2118 134.944 40.2091 135.446 39.0498C135.948 37.9218 136.2 36.7155 136.2 35.4308V30.7308C135.133 32.1408 133.767 33.2845 132.103 34.1618C130.439 35.0078 128.665 35.4308 126.781 35.4308C125.117 35.4308 123.563 35.1175 122.119 34.4908C120.707 33.8641 119.466 33.0181 118.399 31.9528C117.363 30.8561 116.531 29.6028 115.903 28.1928C115.307 26.7828 115.008 25.2788 115.008 23.6808V23.4458V11.9308H117.363V23.4458V23.6808C117.363 24.9655 117.614 26.1875 118.116 27.3468C118.619 28.4748 119.294 29.4618 120.141 30.3078C120.989 31.1538 121.978 31.8275 123.108 32.3288C124.27 32.8301 125.494 33.0808 126.781 33.0808C128.069 33.0808 129.277 32.8301 130.407 32.3288C131.569 31.8275 132.574 31.1538 133.421 30.3078C134.269 29.4618 134.944 28.4748 135.446 27.3468C135.948 26.1875 136.2 24.9655 136.2 23.6808V23.4458V11.9308H138.554Z" fill="#8B8D99"/>
<path d="M85.8521 10.0508V10.6292H86.4317V10.0508H85.8521ZM83.4975 10.0508H82.9179V10.6292H83.4975V10.0508ZM83.4975 7.70078V7.12231H82.9179V7.70078H83.4975ZM85.8521 7.70078H86.4317V7.12231H85.8521V7.70078ZM83.4975 11.9308V11.3523H82.9179V11.9308H83.4975ZM82.744 39.1438L82.2144 38.9089L82.2122 38.9142L82.744 39.1438ZM80.7191 42.1518L81.1291 42.5608L80.7191 42.1518ZM77.7052 44.1258L77.4871 43.5897L77.482 43.5918L77.7052 44.1258ZM70.406 44.1258L70.183 44.6598L70.1882 44.6619L70.406 44.1258ZM67.4392 42.1518L67.0293 42.5608L67.4392 42.1518ZM65.4142 39.1438L65.9462 38.9142L65.9438 38.9089L65.4142 39.1438ZM64.6607 35.4308H65.2403V34.8523H64.6607V35.4308ZM62.3062 35.4308V34.8523H61.7266V35.4308H62.3062ZM63.2009 40.0368L62.667 40.2618L62.6693 40.2674L63.2009 40.0368ZM65.6968 43.7498L66.1066 43.3407L65.6968 43.7498ZM69.417 46.2408L69.6481 45.7103L69.6425 45.7079L69.417 46.2408ZM78.5999 46.2408L78.3746 45.7079L78.3695 45.71L78.3645 45.7122L78.5999 46.2408ZM82.3202 43.7498L81.9224 43.3289L81.9166 43.3347L81.9101 43.3407L82.3202 43.7498ZM84.9102 40.0368L84.3806 39.8019L84.3785 39.8061L84.9102 40.0368ZM85.8521 11.9308H86.4317V11.3523H85.8521V11.9308ZM85.8521 9.47231H83.4975V10.6292H85.8521V9.47231ZM84.0771 10.0508V7.70078H82.9179V10.0508H84.0771ZM83.4975 8.27924H85.8521V7.12231H83.4975V8.27924ZM85.2725 7.70078V10.0508H86.4317V7.70078H85.2725ZM82.9179 11.9308V35.4308H84.0771V11.9308H82.9179ZM82.9179 35.4308C82.9179 36.7046 82.681 37.8613 82.2144 38.9089L83.2736 39.3787C83.8119 38.1702 84.0771 36.8516 84.0771 35.4308H82.9179ZM82.2122 38.9142C81.737 40.0103 81.1023 40.9512 80.309 41.7427L81.1291 42.5608C82.0311 41.6604 82.7462 40.5959 83.2758 39.3734L82.2122 38.9142ZM80.309 41.7427C79.5186 42.5315 78.5804 43.1475 77.4871 43.5897L77.9233 44.6619C79.1534 44.1641 80.2242 43.464 81.1291 42.5608L80.309 41.7427ZM77.482 43.5918C76.4265 44.0309 75.2941 44.2523 74.0791 44.2523V45.4092C75.439 45.4092 76.7235 45.1606 77.9283 44.6598L77.482 43.5918ZM74.0791 44.2523C72.8649 44.2523 71.7142 44.031 70.6237 43.5897L70.1882 44.6619C71.4208 45.1606 72.7192 45.4092 74.0791 45.4092V44.2523ZM70.6289 43.5918C69.567 43.1502 68.642 42.5341 67.849 41.7427L67.0293 42.5608C67.9317 43.4614 68.9845 44.1614 70.183 44.6598L70.6289 43.5918ZM67.849 41.7427C67.0559 40.9512 66.4211 40.0103 65.9462 38.9142L64.8822 39.3734C65.4119 40.5959 66.1271 41.6604 67.0293 42.5608L67.849 41.7427ZM65.9438 38.9089C65.4774 37.8613 65.2403 36.7046 65.2403 35.4308H64.0812C64.0812 36.8516 64.3464 38.1702 64.8846 39.3787L65.9438 38.9089ZM64.6607 34.8523H62.3062V36.0092H64.6607V34.8523ZM61.7266 35.4308C61.7266 37.1621 62.0379 38.7747 62.667 40.2618L63.7349 39.8118C63.171 38.4788 62.8858 37.0208 62.8858 35.4308H61.7266ZM62.6693 40.2674C63.3241 41.7703 64.1958 43.0698 65.2869 44.1588L66.1066 43.3407C65.1257 42.3618 64.3335 41.1859 63.7325 39.8061L62.6693 40.2674ZM65.2869 44.1588C66.4081 45.2778 67.7111 46.1498 69.1916 46.7737L69.6425 45.7079C68.2975 45.1411 67.1203 44.3525 66.1066 43.3407L65.2869 44.1588ZM69.1859 46.7713C70.7071 47.4313 72.3403 47.7592 74.0791 47.7592V46.6023C72.4903 46.6023 71.0153 46.3035 69.6481 45.7103L69.1859 46.7713ZM74.0791 47.7592C75.7585 47.7592 77.3458 47.4301 78.8354 46.7694L78.3645 45.7122C77.0285 46.3048 75.602 46.6023 74.0791 46.6023V47.7592ZM78.8253 46.7737C80.3061 46.1498 81.6087 45.2778 82.7303 44.1588L81.9101 43.3407C80.8966 44.3525 79.7193 45.1411 78.3746 45.7079L78.8253 46.7737ZM82.7179 44.1707C83.8764 43.0806 84.7842 41.7774 85.442 40.2674L84.3785 39.8061C83.7808 41.1788 82.9621 42.3509 81.9224 43.3289L82.7179 44.1707ZM85.4398 40.2717C86.1035 38.7822 86.4317 37.1661 86.4317 35.4308H85.2725C85.2725 37.0168 84.9733 38.4713 84.3806 39.8019L85.4398 40.2717ZM86.4317 35.4308V11.9308H85.2725V35.4308H86.4317ZM85.8521 11.3523H83.4975V12.5092H85.8521V11.3523ZM105.045 12.8708L104.814 13.4013L104.819 13.4034L104.824 13.4054L105.045 12.8708ZM108.766 15.3618L108.35 15.7647L108.355 15.7708L108.362 15.7769L108.766 15.3618ZM111.261 19.0748L110.726 19.2956L110.727 19.3005L110.73 19.3054L111.261 19.0748ZM112.203 35.4308V36.0092H112.783V35.4308H112.203ZM109.849 35.4308H109.269V36.0092H109.849V35.4308ZM109.849 30.7308H110.428V29.0056L109.386 30.382L109.849 30.7308ZM105.752 34.1618L106.015 34.6773L106.023 34.6733L105.752 34.1618ZM95.7682 34.5378L95.5327 35.0663L95.5399 35.0695L95.5472 35.0724L95.7682 34.5378ZM92.0479 32.0468L91.6321 32.4497L91.6379 32.4558L91.6444 32.4619L92.0479 32.0468ZM89.552 28.3338L89.0166 28.5546L89.0195 28.5617L89.0224 28.5687L89.552 28.3338ZM89.552 19.0748L89.0203 18.8441L89.0181 18.849L89.0166 18.854L89.552 19.0748ZM92.0479 15.3618L92.458 15.7708L92.0479 15.3618ZM95.7682 12.8708L95.9935 13.4037L95.9993 13.4013L95.7682 12.8708ZM104.056 32.3288L103.827 31.7978L103.821 31.8002L104.056 32.3288ZM107.07 30.3078L107.48 30.7168L107.07 30.3078ZM109.095 27.3468L109.625 27.5817L109.627 27.5764L109.095 27.3468ZM109.095 20.0618L108.563 20.2914L108.566 20.2967L109.095 20.0618ZM107.07 17.0538L107.48 16.6447L107.07 17.0538ZM104.056 15.0328L103.821 15.5614L103.827 15.5637L104.056 15.0328ZM96.7571 15.0328L96.5274 14.5018L96.5216 14.5041L96.7571 15.0328ZM93.7903 17.0538L93.3803 16.6447L93.7903 17.0538ZM91.7654 20.0618L92.295 20.2967L92.2971 20.2914L91.7654 20.0618ZM91.7654 27.3468L91.2336 27.5764L91.2358 27.5817L91.7654 27.3468ZM93.7903 30.3078L94.2004 29.8987L93.7903 30.3078ZM96.7571 32.3288L96.5216 32.8574L96.5274 32.8597L96.7571 32.3288ZM100.43 12.5092C101.986 12.5092 103.446 12.8074 104.814 13.4013L105.276 12.3403C103.756 11.6808 102.139 11.3523 100.43 11.3523V12.5092ZM104.824 13.4054C106.199 13.9721 107.372 14.7589 108.35 15.7647L109.181 14.9589C108.087 13.834 106.78 12.9601 105.266 12.3361L104.824 13.4054ZM108.362 15.7769C109.37 16.753 110.158 17.9236 110.726 19.2956L111.797 18.854C111.172 17.3433 110.296 16.0385 109.169 14.9467L108.362 15.7769ZM110.73 19.3054C111.325 20.6713 111.624 22.1278 111.624 23.6808H112.783C112.783 21.975 112.454 20.3609 111.793 18.8441L110.73 19.3054ZM111.624 23.6808V35.4308H112.783V23.6808H111.624ZM112.203 34.8523H109.849V36.0092H112.203V34.8523ZM110.428 35.4308V30.7308H109.269V35.4308H110.428ZM109.386 30.382C108.373 31.7202 107.075 32.81 105.481 33.6503L106.023 34.6733C107.756 33.7589 109.189 32.5613 110.311 31.0795L109.386 30.382ZM105.489 33.6464C103.907 34.4506 102.223 34.8523 100.43 34.8523V36.0092C102.404 36.0092 104.269 35.565 106.015 34.6772L105.489 33.6464ZM100.43 34.8523C98.8371 34.8523 97.3592 34.5677 95.9891 34.0031L95.5472 35.0724C97.0657 35.6985 98.6958 36.0092 100.43 36.0092V34.8523ZM96.0036 34.0092C94.651 33.4091 93.4679 32.6164 92.4515 31.6317L91.6444 32.4619C92.7623 33.5451 94.0605 34.4132 95.5327 35.0663L96.0036 34.0092ZM92.4638 31.6439C91.477 30.6293 90.683 29.4491 90.0816 28.0989L89.0224 28.5687C89.6767 30.0384 90.5468 31.3335 91.6321 32.4497L92.4638 31.6439ZM90.0874 28.113C89.5223 26.7461 89.2369 25.2707 89.2369 23.6808H88.0777C88.0777 25.4123 88.3892 27.0388 89.0166 28.5546L90.0874 28.113ZM89.2369 23.6808C89.2369 22.1238 89.5216 20.6638 90.0874 19.2956L89.0166 18.854C88.39 20.3684 88.0777 21.9792 88.0777 23.6808H89.2369ZM90.0838 19.3054C90.6844 17.9257 91.477 16.7498 92.458 15.7708L91.6379 14.9527C90.5468 16.0418 89.6752 17.3413 89.0203 18.8441L90.0838 19.3054ZM92.458 15.7708C93.4715 14.7591 94.6488 13.9704 95.9935 13.4037L95.5429 12.3379C94.062 12.9617 92.7594 13.8338 91.6379 14.9527L92.458 15.7708ZM95.9993 13.4013C97.3664 12.808 98.8414 12.5092 100.43 12.5092V11.3523C98.6915 11.3523 97.0585 11.6802 95.5371 12.3403L95.9993 13.4013ZM100.43 33.6592C101.795 33.6592 103.085 33.3929 104.292 32.8574L103.821 31.8002C102.768 32.2673 101.639 32.5023 100.43 32.5023V33.6592ZM104.287 32.8597C105.511 32.3311 106.578 31.6173 107.48 30.7168L106.66 29.8987C105.868 30.6903 104.924 31.3238 103.827 31.7978L104.287 32.8597ZM107.48 30.7168C108.379 29.819 109.094 28.7725 109.625 27.5817L108.566 27.1119C108.091 28.1771 107.456 29.1046 106.66 29.8987L107.48 30.7168ZM109.627 27.5764C110.162 26.3433 110.428 25.0431 110.428 23.6808H109.269C109.269 24.8879 109.034 26.0316 108.563 27.1172L109.627 27.5764ZM110.428 23.6808C110.428 22.3186 110.162 21.0319 109.625 19.8268L108.566 20.2967C109.034 21.3477 109.269 22.4737 109.269 23.6808H110.428ZM109.627 19.8322C109.097 18.6097 108.382 17.5452 107.48 16.6447L106.66 17.4628C107.453 18.2544 108.088 19.1952 108.563 20.2914L109.627 19.8322ZM107.48 16.6447C106.578 15.7443 105.511 15.0305 104.287 14.5018L103.827 15.5637C104.924 16.0377 105.868 16.6712 106.66 17.4628L107.48 16.6447ZM104.292 14.5041C103.085 13.9686 101.795 13.7023 100.43 13.7023V14.8592C101.639 14.8592 102.768 15.0942 103.821 15.5613L104.292 14.5041ZM100.43 13.7023C99.0653 13.7023 97.7627 13.9686 96.5274 14.5018L96.9875 15.5637C98.0749 15.0943 99.2211 14.8592 100.43 14.8592V13.7023ZM96.5216 14.5041C95.3284 15.0334 94.2801 15.747 93.3803 16.6447L94.2004 17.4628C94.9959 16.6686 95.9254 16.0348 96.9926 15.5613L96.5216 14.5041ZM93.3803 16.6447C92.4783 17.5452 91.7632 18.6097 91.2336 19.8322L92.2971 20.2914C92.7724 19.1952 93.4071 18.2544 94.2004 17.4628L93.3803 16.6447ZM91.2358 19.8268C90.6989 21.0319 90.4323 22.3186 90.4323 23.6808H91.5915C91.5915 22.4737 91.8269 21.3477 92.295 20.2967L91.2358 19.8268ZM90.4323 23.6808C90.4323 25.0431 90.6989 26.3433 91.2336 27.5764L92.2971 27.1172C91.8269 26.0316 91.5915 24.8879 91.5915 23.6808H90.4323ZM91.2358 27.5817C91.7661 28.7725 92.4812 29.819 93.3803 30.7168L94.2004 29.8987C93.4042 29.1046 92.7695 28.1771 92.295 27.1119L91.2358 27.5817ZM93.3803 30.7168C94.2801 31.6146 95.3284 32.3281 96.5216 32.8574L96.9926 31.8002C95.9254 31.3267 94.9959 30.693 94.2004 29.8987L93.3803 30.7168ZM96.5274 32.8597C97.7627 33.3929 99.0653 33.6592 100.43 33.6592V32.5023C99.2211 32.5023 98.0749 32.2672 96.9875 31.7978L96.5274 32.8597ZM138.554 11.9308H139.134V11.3523H138.554V11.9308ZM137.613 40.0368L137.083 39.8019L137.08 39.8089L137.077 39.816L137.613 40.0368ZM135.117 43.7498L134.713 43.3347L134.707 43.3407L134.701 43.3469L135.117 43.7498ZM131.396 46.2408L131.175 45.7061L131.17 45.7082L131.165 45.7103L131.396 46.2408ZM122.119 46.2408L122.35 45.7103L122.345 45.7079L122.119 46.2408ZM118.399 43.7498L118.809 43.3407L118.399 43.7498ZM115.903 40.0368L115.369 40.2618L115.371 40.2674L115.903 40.0368ZM115.008 35.4308V34.8523H114.429V35.4308H115.008ZM117.363 35.4308H117.943V34.8523H117.363V35.4308ZM118.117 39.0498L118.648 38.8202L118.646 38.8149L118.117 39.0498ZM120.141 42.0578L120.552 41.6487L120.141 42.0578ZM123.108 44.0788L122.873 44.6074L122.879 44.6097L123.108 44.0788ZM130.407 44.0788L130.178 43.5478L130.172 43.5502L130.407 44.0788ZM133.421 42.0578L133.831 42.4668L133.421 42.0578ZM135.446 39.0498L134.917 38.8149L134.915 38.8202L135.446 39.0498ZM136.2 30.7308H136.779V29.0056L135.738 30.382L136.2 30.7308ZM132.103 34.1618L132.366 34.6773L132.374 34.6733L132.103 34.1618ZM122.119 34.4908L121.884 35.0194L121.888 35.0213L122.119 34.4908ZM118.399 31.9528L117.977 32.3496L117.983 32.3558L117.989 32.3618L118.399 31.9528ZM115.903 28.1928L115.369 28.4178L115.371 28.4228L115.374 28.4277L115.903 28.1928ZM115.008 11.9308V11.3523H114.429V11.9308H115.008ZM117.363 11.9308H117.943V11.3523H117.363V11.9308ZM118.117 27.3468L117.585 27.5764L117.587 27.5817L118.117 27.3468ZM120.141 30.3078L120.552 29.8987L120.141 30.3078ZM123.108 32.3288L122.873 32.8574L122.879 32.8597L123.108 32.3288ZM130.407 32.3288L130.178 31.7978L130.172 31.8002L130.407 32.3288ZM133.421 30.3078L133.831 30.7168L133.421 30.3078ZM135.446 27.3468L135.976 27.5817L135.978 27.5764L135.446 27.3468ZM136.2 11.9308V11.3523H135.62V11.9308H136.2ZM137.975 11.9308V23.4458H139.134V11.9308H137.975ZM137.975 23.4458V23.6808H139.134V23.4458H137.975ZM137.975 23.6808V35.4308H139.134V23.6808H137.975ZM137.975 35.4308C137.975 37.0168 137.676 38.4713 137.083 39.8019L138.142 40.2717C138.806 38.7822 139.134 37.1661 139.134 35.4308H137.975ZM137.077 39.816C136.509 41.188 135.721 42.3585 134.713 43.3347L135.52 44.1649C136.648 43.0731 137.523 41.7683 138.149 40.2576L137.077 39.816ZM134.701 43.3469C133.723 44.3527 132.55 45.1395 131.175 45.7061L131.618 46.7754C133.132 46.1515 134.439 45.2776 135.533 44.1527L134.701 43.3469ZM131.165 45.7103C129.797 46.3041 128.338 46.6023 126.781 46.6023V47.7592C128.49 47.7592 130.108 47.4308 131.628 46.7713L131.165 45.7103ZM126.781 46.6023C125.193 46.6023 123.718 46.3035 122.35 45.7103L121.888 46.7713C123.41 47.4313 125.043 47.7592 126.781 47.7592V46.6023ZM122.345 45.7079C121 45.1411 119.823 44.3525 118.809 43.3407L117.989 44.1588C119.111 45.2778 120.413 46.1498 121.894 46.7737L122.345 45.7079ZM118.809 43.3407C117.828 42.3618 117.036 41.1859 116.435 39.8061L115.371 40.2674C116.026 41.7703 116.898 43.0698 117.989 44.1588L118.809 43.3407ZM116.437 39.8118C115.873 38.4788 115.588 37.0208 115.588 35.4308H114.429C114.429 37.1621 114.74 38.7747 115.369 40.2618L116.437 39.8118ZM115.008 36.0092H117.363V34.8523H115.008V36.0092ZM116.783 35.4308C116.783 36.793 117.05 38.0797 117.587 39.2847L118.646 38.8149C118.178 37.7639 117.943 36.6379 117.943 35.4308H116.783ZM117.585 39.2794C118.114 40.5019 118.829 41.5664 119.731 42.4668L120.552 41.6487C119.758 40.8572 119.124 39.9163 118.648 38.8202L117.585 39.2794ZM119.731 42.4668C120.631 43.3646 121.68 44.0781 122.873 44.6074L123.344 43.5502C122.277 43.0767 121.347 42.443 120.552 41.6487L119.731 42.4668ZM122.879 44.6097C124.114 45.1429 125.416 45.4092 126.781 45.4092V44.2523C125.572 44.2523 124.426 44.0173 123.339 43.5478L122.879 44.6097ZM126.781 45.4092C128.146 45.4092 129.436 45.1429 130.643 44.6074L130.172 43.5502C129.119 44.0173 127.991 44.2523 126.781 44.2523V45.4092ZM130.638 44.6097C131.862 44.0811 132.929 43.3673 133.831 42.4668L133.011 41.6487C132.219 42.4403 131.276 43.0739 130.178 43.5478L130.638 44.6097ZM133.831 42.4668C134.733 41.5664 135.448 40.5019 135.978 39.2794L134.915 38.8202C134.439 39.9163 133.805 40.8572 133.011 41.6487L133.831 42.4668ZM135.976 39.2847C136.513 38.0797 136.779 36.793 136.779 35.4308H135.62C135.62 36.6379 135.385 37.7639 134.917 38.8149L135.976 39.2847ZM136.779 35.4308V30.7308H135.62V35.4308H136.779ZM135.738 30.382C134.725 31.7202 133.426 32.81 131.832 33.6503L132.374 34.6733C134.107 33.7589 135.54 32.5613 136.662 31.0795L135.738 30.382ZM131.84 33.6464C130.258 34.4506 128.575 34.8523 126.781 34.8523V36.0092C128.756 36.0092 130.62 35.565 132.366 34.6772L131.84 33.6464ZM126.781 34.8523C125.193 34.8523 123.718 34.5535 122.35 33.9603L121.888 35.0213C123.41 35.6813 125.043 36.0092 126.781 36.0092V34.8523ZM122.355 33.9622C121.006 33.3637 119.825 32.5576 118.809 31.5437L117.989 32.3618C119.108 33.4785 120.408 34.3646 121.884 35.0194L122.355 33.9622ZM118.821 31.556C117.831 30.5079 117.035 29.3096 116.433 27.9579L115.374 28.4277C116.028 29.8959 116.896 31.2043 117.977 32.3496L118.821 31.556ZM116.437 27.9678C115.872 26.6321 115.588 25.205 115.588 23.6808H114.429C114.429 25.3526 114.741 26.9335 115.369 28.4178L116.437 27.9678ZM115.588 23.6808V23.4458H114.429V23.6808H115.588ZM115.588 23.4458V11.9308H114.429V23.4458H115.588ZM115.008 12.5092H117.363V11.3523H115.008V12.5092ZM116.783 11.9308V23.4458H117.943V11.9308H116.783ZM116.783 23.4458V23.6808H117.943V23.4458H116.783ZM116.783 23.6808C116.783 25.0431 117.05 26.3433 117.585 27.5764L118.648 27.1172C118.178 26.0316 117.943 24.8879 117.943 23.6808H116.783ZM117.587 27.5817C118.117 28.7725 118.832 29.819 119.731 30.7168L120.552 29.8987C119.755 29.1046 119.121 28.1771 118.646 27.1119L117.587 27.5817ZM119.731 30.7168C120.631 31.6146 121.68 32.3281 122.873 32.8574L123.344 31.8002C122.277 31.3267 121.347 30.693 120.552 29.8987L119.731 30.7168ZM122.879 32.8597C124.114 33.3929 125.416 33.6592 126.781 33.6592V32.5023C125.572 32.5023 124.426 32.2672 123.339 31.7978L122.879 32.8597ZM126.781 33.6592C128.146 33.6592 129.436 33.3929 130.643 32.8574L130.172 31.8002C129.119 32.2673 127.991 32.5023 126.781 32.5023V33.6592ZM130.638 32.8597C131.862 32.3311 132.929 31.6173 133.831 30.7168L133.011 29.8987C132.219 30.6903 131.276 31.3238 130.178 31.7978L130.638 32.8597ZM133.831 30.7168C134.731 29.819 135.446 28.7725 135.976 27.5817L134.917 27.1119C134.442 28.1771 133.808 29.1046 133.011 29.8987L133.831 30.7168ZM135.978 27.5764C136.513 26.3433 136.779 25.0431 136.779 23.6808H135.62C135.62 24.8879 135.385 26.0316 134.915 27.1172L135.978 27.5764ZM136.779 23.6808V23.4458H135.62V23.6808H136.779ZM136.779 23.4458V11.9308H135.62V23.4458H136.779ZM136.2 12.5092H138.554V11.3523H136.2V12.5092Z" fill="#8B8D99"/>
</g>
<defs>
<clipPath id="clip0_2_10">
<rect width="142" height="47" fill="white"/>
</clipPath>
</defs>
</svg>
