<svg width="47" height="47" viewBox="0 0 47 47" fill="none" xmlns="http://www.w3.org/2000/svg">
<path d="M23.5394 0.052063C10.7237 0.052063 0.334229 10.3752 0.334229 23.1086C0.334229 35.8416 10.7237 46.1651 23.5394 46.1651C36.3555 46.1651 46.7454 35.8416 46.7454 23.1086C46.7454 10.3752 36.3555 0.052063 23.5394 0.052063ZM36.5333 28.3036C36.5333 30.0761 35.0872 31.5129 33.3037 31.5129C33.3037 31.5129 30.5451 31.9115 23.3809 31.9115C16.1754 31.9115 13.6423 31.5129 13.6423 31.5129C11.8584 31.5129 10.4119 30.0761 10.4119 28.3036V17.7138C10.4119 15.9417 11.858 14.5045 13.6423 14.5045C13.6423 14.5045 16.1754 14.1059 23.3729 14.1059C30.5451 14.1059 33.3037 14.5045 33.3037 14.5045C35.0872 14.5045 36.5333 15.9413 36.5333 17.7138V28.3036Z" fill="#9D99BE"/>
<path d="M19.5186 27.3949L28.3275 23.0205L19.5186 18.646V27.3949Z" fill="#9D99BE"/>
</svg>
